<?xml version="1.0" encoding="iso-8859-1"?>
<!-- Generator: Adobe Illustrator 16.0.3, SVG Export Plug-In . SVG Version: 6.00 Build 0)  -->
<!DOCTYPE svg PUBLIC "-//W3C//DTD SVG 1.1//EN" "http://www.w3.org/Graphics/SVG/1.1/DTD/svg11.dtd">
<svg version="1.1" id="Layer_1" xmlns="http://www.w3.org/2000/svg" xmlns:xlink="http://www.w3.org/1999/xlink" x="0px" y="0px"
	 width="219px" height="80px" viewBox="0 0 219 80" style="enable-background:new 0 0 219 80;" xml:space="preserve">
<path style="fill:#333333;" d="M27.981,15.694c-13.402,0-24.305,10.903-24.305,24.305c0,13.403,10.903,24.306,24.305,24.306
	c13.402,0,24.306-10.903,24.306-24.306C52.287,26.597,41.383,15.694,27.981,15.694z M6.129,39.999c0-3.168,0.68-6.176,1.892-8.893
	l10.424,28.561C11.155,56.124,6.129,48.648,6.129,39.999z M27.981,61.854c-2.145,0-4.215-0.314-6.173-0.891l6.557-19.053
	l6.717,18.402c0.044,0.109,0.099,0.207,0.156,0.301C32.967,61.414,30.526,61.854,27.981,61.854z M30.993,29.753
	c1.315-0.069,2.501-0.208,2.501-0.208c1.178-0.139,1.039-1.87-0.139-1.8c0,0-3.54,0.277-5.825,0.277
	c-2.147,0-5.755-0.277-5.755-0.277c-1.179-0.069-1.317,1.731-0.139,1.8c0,0,1.115,0.139,2.292,0.208l3.404,9.328L22.55,53.424
	l-7.958-23.671c1.316-0.069,2.501-0.208,2.501-0.208c1.177-0.139,1.038-1.87-0.14-1.8c0,0-3.539,0.277-5.824,0.277
	c-0.41,0-0.894-0.01-1.407-0.026c3.908-5.932,10.624-9.85,18.258-9.85c5.689,0,10.869,2.175,14.757,5.737
	c-0.094-0.006-0.186-0.018-0.283-0.018c-2.146,0-3.669,1.87-3.669,3.878c0,1.8,1.039,3.324,2.146,5.125
	c0.831,1.456,1.802,3.325,1.802,6.027c0,1.87-0.719,4.041-1.663,7.064l-2.18,7.283L30.993,29.753z M47.157,29.515
	c1.706,3.112,2.676,6.684,2.676,10.483c0,8.062-4.369,15.101-10.866,18.888l6.674-19.298c1.247-3.117,1.662-5.61,1.662-7.827
	C47.304,30.958,47.251,30.211,47.157,29.515z"/>
<g>
	<path style="fill:#333333;" d="M59.228,46.25v11.986h-3.96V22.64h13.014c7.767,0,11.368,3.755,11.368,11.471
		c0,7.768-3.601,12.14-11.368,12.14H59.228z M68.229,42.752c5.195,0,7.356-3.137,7.356-8.642c0-5.452-2.161-7.973-7.356-7.973
		h-9.002v16.614H68.229z"/>
	<path style="fill:#333333;" d="M93.435,22.64h8.641l9.774,35.597h-3.909l-2.572-9.156H90.142l-2.572,9.156h-3.909L93.435,22.64z
		 M91.017,45.529h13.477l-5.401-19.495h-2.674L91.017,45.529z"/>
	<path style="fill:#333333;" d="M136.232,58.236h-3.807v-1.75c0,0-3.961,2.264-7.819,2.264c-5.041,0-9.259-2.058-9.259-13.168
		c0-9.054,2.932-13.581,10.751-13.581c2.212,0,5.556,0.515,6.327,0.669V21.302h3.807V58.236z M132.426,53.4V35.962
		c-0.823-0.154-4.013-0.617-6.121-0.617c-5.401,0-6.996,3.549-6.996,10.237c0,8.332,2.726,9.722,5.761,9.722
		C128.722,55.304,132.426,53.4,132.426,53.4z"/>
	<path style="fill:#333333;" d="M161.85,53.452c0.103,1.491,1.337,2.058,2.983,2.263l-0.154,3.035c-2.727,0-4.578-0.514-6.121-2.058
		c0,0-4.63,2.058-9.26,2.058c-4.681,0-7.253-2.675-7.253-7.87c0-4.938,2.572-7.099,7.87-7.613l8.076-0.771v-2.212
		c0-3.601-1.543-4.887-4.63-4.887c-3.601,0-9.722,0.668-9.722,0.668l-0.154-2.932c0,0,5.658-1.131,10.082-1.131
		c5.813,0,8.282,2.675,8.282,8.282V53.452z M150.378,46.147c-3.138,0.309-4.372,1.8-4.372,4.63c0,2.982,1.286,4.732,3.909,4.732
		c3.807,0,8.076-1.596,8.076-1.596v-8.486L150.378,46.147z"/>
	<path style="fill:#333333;" d="M169.463,58.236v-25.72h3.806v1.8c0,0,3.858-2.315,7.511-2.315c3.446,0,5.35,0.772,6.687,2.624
		c0,0,4.579-2.624,9.156-2.624c6.997,0,8.694,3.344,8.694,12.655v13.58h-3.858V44.758c0-6.789-0.771-9.31-5.401-9.31
		c-3.807,0-7.253,1.903-7.253,1.903c0.463,1.183,0.669,4.424,0.669,7.51v13.375h-3.858V44.965c0-7.099-0.72-9.517-5.401-9.517
		c-3.651,0-6.893,1.903-6.893,1.903v20.885H169.463z"/>
	<path style="fill:#333333;" d="M212.467,32.516h3.857v25.72h-3.857V32.516z"/>
</g>
</svg>
